<svg height="7646" width="720" xmlns="http://www.w3.org/2000/svg">
<rect height="7646" fill="#555" width="720"></rect>
<text fill="#7f7" font-family="Courier New" font-size="12" xml:space="preserve">
<tspan x="10" y="26">94 megabytes installed</tspan>
<tspan x="10" y="42"></tspan>
<tspan x="10" y="58">node_modules</tspan>
<tspan x="10" y="74">└─┬ weex-devtool@0.2.80 </tspan>
<tspan x="10" y="90">  ├─┬ babel-core@6.24.1 </tspan>
<tspan x="10" y="106">  │ ├─┬ babel-code-frame@6.22.0 </tspan>
<tspan x="10" y="122">  │ │ ├── esutils@2.0.2 </tspan>
<tspan x="10" y="138">  │ │ └── js-tokens@3.0.1 </tspan>
<tspan x="10" y="154">  │ ├─┬ babel-generator@6.24.1 </tspan>
<tspan x="10" y="170">  │ │ ├─┬ detect-indent@4.0.0 </tspan>
<tspan x="10" y="186">  │ │ │ └─┬ repeating@2.0.1 </tspan>
<tspan x="10" y="202">  │ │ │   └─┬ is-finite@1.0.2 </tspan>
<tspan x="10" y="218">  │ │ │     └── number-is-nan@1.0.1 </tspan>
<tspan x="10" y="234">  │ │ ├── jsesc@1.3.0 </tspan>
<tspan x="10" y="250">  │ │ └── trim-right@1.0.1 </tspan>
<tspan x="10" y="266">  │ ├── babel-helpers@6.24.1 </tspan>
<tspan x="10" y="282">  │ ├── babel-messages@6.23.0 </tspan>
<tspan x="10" y="298">  │ ├─┬ babel-register@6.24.1 </tspan>
<tspan x="10" y="314">  │ │ ├─┬ home-or-tmp@2.0.0 </tspan>
<tspan x="10" y="330">  │ │ │ ├── os-homedir@1.0.2 </tspan>
<tspan x="10" y="346">  │ │ │ └── os-tmpdir@1.0.2 </tspan>
<tspan x="10" y="362">  │ │ └── source-map-support@0.4.14 </tspan>
<tspan x="10" y="378">  │ ├── babel-template@6.24.1 </tspan>
<tspan x="10" y="394">  │ ├─┬ babel-traverse@6.24.1 </tspan>
<tspan x="10" y="410">  │ │ ├── globals@9.17.0 </tspan>
<tspan x="10" y="426">  │ │ └─┬ invariant@2.2.2 </tspan>
<tspan x="10" y="442">  │ │   └── loose-envify@1.3.1 </tspan>
<tspan x="10" y="458">  │ ├─┬ babel-types@6.24.1 </tspan>
<tspan x="10" y="474">  │ │ └── to-fast-properties@1.0.2 </tspan>
<tspan x="10" y="490">  │ ├── babylon@6.17.0 </tspan>
<tspan x="10" y="506">  │ ├── convert-source-map@1.5.0 </tspan>
<tspan x="10" y="522">  │ ├─┬ debug@2.6.4 </tspan>
<tspan x="10" y="538">  │ │ └── ms@0.7.3 </tspan>
<tspan x="10" y="554">  │ ├── json5@0.5.1 </tspan>
<tspan x="10" y="570">  │ ├── lodash@4.17.4 </tspan>
<tspan x="10" y="586">  │ ├─┬ minimatch@3.0.3 </tspan>
<tspan x="10" y="602">  │ │ └─┬ brace-expansion@1.1.7 </tspan>
<tspan x="10" y="618">  │ │   ├── balanced-match@0.4.2 </tspan>
<tspan x="10" y="634">  │ │   └── concat-map@0.0.1 </tspan>
<tspan x="10" y="650">  │ ├── path-is-absolute@1.0.1 </tspan>
<tspan x="10" y="666">  │ ├── private@0.1.7 </tspan>
<tspan x="10" y="682">  │ └── slash@1.0.0 </tspan>
<tspan x="10" y="698">  ├─┬ babel-loader@6.4.1 </tspan>
<tspan x="10" y="714">  │ ├─┬ find-cache-dir@0.1.1 </tspan>
<tspan x="10" y="730">  │ │ ├── commondir@1.0.1 </tspan>
<tspan x="10" y="746">  │ │ └─┬ pkg-dir@1.0.0 </tspan>
<tspan x="10" y="762">  │ │   └─┬ find-up@1.1.2 </tspan>
<tspan x="10" y="778">  │ │     └── path-exists@2.1.0 </tspan>
<tspan x="10" y="794">  │ ├─┬ loader-utils@0.2.17 </tspan>
<tspan x="10" y="810">  │ │ ├── big.js@3.1.3 </tspan>
<tspan x="10" y="826">  │ │ └── emojis-list@2.1.0 </tspan>
<tspan x="10" y="842">  │ └── object-assign@4.1.1 </tspan>
<tspan x="10" y="858">  ├─┬ babel-preset-es2015@6.24.1 </tspan>
<tspan x="10" y="874">  │ ├── babel-plugin-check-es2015-constants@6.22.0 </tspan>
<tspan x="10" y="890">  │ ├── babel-plugin-transform-es2015-arrow-functions@6.22.0 </tspan>
<tspan x="10" y="906">  │ ├── babel-plugin-transform-es2015-block-scoped-functions@6.22.0 </tspan>
<tspan x="10" y="922">  │ ├── babel-plugin-transform-es2015-block-scoping@6.24.1 </tspan>
<tspan x="10" y="938">  │ ├─┬ babel-plugin-transform-es2015-classes@6.24.1 </tspan>
<tspan x="10" y="954">  │ │ ├── babel-helper-define-map@6.24.1 </tspan>
<tspan x="10" y="970">  │ │ ├── babel-helper-function-name@6.24.1 </tspan>
<tspan x="10" y="986">  │ │ ├── babel-helper-optimise-call-expression@6.24.1 </tspan>
<tspan x="10" y="1002">  │ │ └── babel-helper-replace-supers@6.24.1 </tspan>
<tspan x="10" y="1018">  │ ├── babel-plugin-transform-es2015-computed-properties@6.24.1 </tspan>
<tspan x="10" y="1034">  │ ├── babel-plugin-transform-es2015-destructuring@6.23.0 </tspan>
<tspan x="10" y="1050">  │ ├── babel-plugin-transform-es2015-duplicate-keys@6.24.1 </tspan>
<tspan x="10" y="1066">  │ ├── babel-plugin-transform-es2015-for-of@6.23.0 </tspan>
<tspan x="10" y="1082">  │ ├── babel-plugin-transform-es2015-function-name@6.24.1 </tspan>
<tspan x="10" y="1098">  │ ├── babel-plugin-transform-es2015-literals@6.22.0 </tspan>
<tspan x="10" y="1114">  │ ├── babel-plugin-transform-es2015-modules-amd@6.24.1 </tspan>
<tspan x="10" y="1130">  │ ├─┬ babel-plugin-transform-es2015-modules-commonjs@6.24.1 </tspan>
<tspan x="10" y="1146">  │ │ └── babel-plugin-transform-strict-mode@6.24.1 </tspan>
<tspan x="10" y="1162">  │ ├─┬ babel-plugin-transform-es2015-modules-systemjs@6.24.1 </tspan>
<tspan x="10" y="1178">  │ │ └── babel-helper-hoist-variables@6.24.1 </tspan>
<tspan x="10" y="1194">  │ ├── babel-plugin-transform-es2015-modules-umd@6.24.1 </tspan>
<tspan x="10" y="1210">  │ ├── babel-plugin-transform-es2015-object-super@6.24.1 </tspan>
<tspan x="10" y="1226">  │ ├─┬ babel-plugin-transform-es2015-parameters@6.24.1 </tspan>
<tspan x="10" y="1242">  │ │ ├── babel-helper-call-delegate@6.24.1 </tspan>
<tspan x="10" y="1258">  │ │ └── babel-helper-get-function-arity@6.24.1 </tspan>
<tspan x="10" y="1274">  │ ├── babel-plugin-transform-es2015-shorthand-properties@6.24.1 </tspan>
<tspan x="10" y="1290">  │ ├── babel-plugin-transform-es2015-spread@6.22.0 </tspan>
<tspan x="10" y="1306">  │ ├─┬ babel-plugin-transform-es2015-sticky-regex@6.24.1 </tspan>
<tspan x="10" y="1322">  │ │ └── babel-helper-regex@6.24.1 </tspan>
<tspan x="10" y="1338">  │ ├── babel-plugin-transform-es2015-template-literals@6.22.0 </tspan>
<tspan x="10" y="1354">  │ ├── babel-plugin-transform-es2015-typeof-symbol@6.23.0 </tspan>
<tspan x="10" y="1370">  │ ├─┬ babel-plugin-transform-es2015-unicode-regex@6.24.1 </tspan>
<tspan x="10" y="1386">  │ │ └─┬ regexpu-core@2.0.0 </tspan>
<tspan x="10" y="1402">  │ │   ├── regenerate@1.3.2 </tspan>
<tspan x="10" y="1418">  │ │   ├── regjsgen@0.2.0 </tspan>
<tspan x="10" y="1434">  │ │   └─┬ regjsparser@0.1.5 </tspan>
<tspan x="10" y="1450">  │ │     └── jsesc@0.5.0 </tspan>
<tspan x="10" y="1466">  │ └─┬ babel-plugin-transform-regenerator@6.24.1 </tspan>
<tspan x="10" y="1482">  │   └── regenerator-transform@0.9.11 </tspan>
<tspan x="10" y="1498">  ├─┬ babel-runtime@6.23.0 </tspan>
<tspan x="10" y="1514">  │ ├── core-js@2.4.1 </tspan>
<tspan x="10" y="1530">  │ └── regenerator-runtime@0.10.3 </tspan>
<tspan x="10" y="1546">  ├─┬ commander@2.9.0 </tspan>
<tspan x="10" y="1562">  │ └── graceful-readlink@1.0.1 </tspan>
<tspan x="10" y="1578">  ├─┬ del@2.2.2 </tspan>
<tspan x="10" y="1594">  │ ├─┬ globby@5.0.0 </tspan>
<tspan x="10" y="1610">  │ │ ├─┬ array-union@1.0.2 </tspan>
<tspan x="10" y="1626">  │ │ │ └── array-uniq@1.0.3 </tspan>
<tspan x="10" y="1642">  │ │ ├── arrify@1.0.1 </tspan>
<tspan x="10" y="1658">  │ │ └─┬ glob@7.1.1 </tspan>
<tspan x="10" y="1674">  │ │   ├── fs.realpath@1.0.0 </tspan>
<tspan x="10" y="1690">  │ │   ├─┬ inflight@1.0.6 </tspan>
<tspan x="10" y="1706">  │ │   │ └── wrappy@1.0.2 </tspan>
<tspan x="10" y="1722">  │ │   └── once@1.4.0 </tspan>
<tspan x="10" y="1738">  │ ├── is-path-cwd@1.0.0 </tspan>
<tspan x="10" y="1754">  │ ├─┬ is-path-in-cwd@1.0.0 </tspan>
<tspan x="10" y="1770">  │ │ └─┬ is-path-inside@1.0.0 </tspan>
<tspan x="10" y="1786">  │ │   └── path-is-inside@1.0.2 </tspan>
<tspan x="10" y="1802">  │ ├── pify@2.3.0 </tspan>
<tspan x="10" y="1818">  │ ├─┬ pinkie-promise@2.0.1 </tspan>
<tspan x="10" y="1834">  │ │ └── pinkie@2.0.4 </tspan>
<tspan x="10" y="1850">  │ └── rimraf@2.6.1 </tspan>
<tspan x="10" y="1866">  ├── exit@0.1.2 </tspan>
<tspan x="10" y="1882">  ├── ip@1.1.5 </tspan>
<tspan x="10" y="1898">  ├─┬ javascript-obfuscator@0.8.6 </tspan>
<tspan x="10" y="1914">  │ ├─┬ babel-polyfill@6.16.0 </tspan>
<tspan x="10" y="1930">  │ │ └── regenerator-runtime@0.9.6 </tspan>
<tspan x="10" y="1946">  │ ├── chance@1.0.4 </tspan>
<tspan x="10" y="1962">  │ ├─┬ class-validator@0.6.6 </tspan>
<tspan x="10" y="1978">  │ │ └── validator@7.0.0 </tspan>
<tspan x="10" y="1994">  │ ├─┬ escodegen@1.8.1 </tspan>
<tspan x="10" y="2010">  │ │ ├── esprima@2.7.3 </tspan>
<tspan x="10" y="2026">  │ │ ├── estraverse@1.9.3 </tspan>
<tspan x="10" y="2042">  │ │ ├─┬ optionator@0.8.2 </tspan>
<tspan x="10" y="2058">  │ │ │ ├── deep-is@0.1.3 </tspan>
<tspan x="10" y="2074">  │ │ │ ├── fast-levenshtein@2.0.6 </tspan>
<tspan x="10" y="2090">  │ │ │ ├── levn@0.3.0 </tspan>
<tspan x="10" y="2106">  │ │ │ ├── prelude-ls@1.1.2 </tspan>
<tspan x="10" y="2122">  │ │ │ ├── type-check@0.3.2 </tspan>
<tspan x="10" y="2138">  │ │ │ └── wordwrap@1.0.0 </tspan>
<tspan x="10" y="2154">  │ │ └─┬ source-map@0.2.0 </tspan>
<tspan x="10" y="2170">  │ │   └── amdefine@1.0.1 </tspan>
<tspan x="10" y="2186">  │ ├── esprima@3.1.1 </tspan>
<tspan x="10" y="2202">  │ ├── estraverse@4.2.0 </tspan>
<tspan x="10" y="2218">  │ ├── format-unicorn@1.1.0 </tspan>
<tspan x="10" y="2234">  │ └── source-map-support@0.4.6 </tspan>
<tspan x="10" y="2250">  ├─┬ koa@1.4.0 </tspan>
<tspan x="10" y="2266">  │ ├─┬ accepts@1.3.3 </tspan>
<tspan x="10" y="2282">  │ │ └── negotiator@0.6.1 </tspan>
<tspan x="10" y="2298">  │ ├── co@4.6.0 </tspan>
<tspan x="10" y="2314">  │ ├─┬ composition@2.3.0 </tspan>
<tspan x="10" y="2330">  │ │ └── any-promise@1.3.0 </tspan>
<tspan x="10" y="2346">  │ ├── content-disposition@0.5.2 </tspan>
<tspan x="10" y="2362">  │ ├── content-type@1.0.2 </tspan>
<tspan x="10" y="2378">  │ ├─┬ cookies@0.7.0 </tspan>
<tspan x="10" y="2394">  │ │ ├── depd@1.1.0 </tspan>
<tspan x="10" y="2410">  │ │ └── keygrip@1.0.1 </tspan>
<tspan x="10" y="2426">  │ ├── delegates@1.0.0 </tspan>
<tspan x="10" y="2442">  │ ├── destroy@1.0.4 </tspan>
<tspan x="10" y="2458">  │ ├── error-inject@1.0.0 </tspan>
<tspan x="10" y="2474">  │ ├── escape-html@1.0.3 </tspan>
<tspan x="10" y="2490">  │ ├── fresh@0.3.0 </tspan>
<tspan x="10" y="2506">  │ ├─┬ http-assert@1.2.0 </tspan>
<tspan x="10" y="2522">  │ │ ├── deep-equal@1.0.1 </tspan>
<tspan x="10" y="2538">  │ │ └─┬ http-errors@1.4.0 </tspan>
<tspan x="10" y="2554">  │ │   └── inherits@2.0.1 </tspan>
<tspan x="10" y="2570">  │ ├─┬ http-errors@1.6.1 </tspan>
<tspan x="10" y="2586">  │ │ ├── inherits@2.0.3 </tspan>
<tspan x="10" y="2602">  │ │ └── setprototypeof@1.0.3 </tspan>
<tspan x="10" y="2618">  │ ├── koa-compose@2.5.1 </tspan>
<tspan x="10" y="2634">  │ ├── koa-is-json@1.0.0 </tspan>
<tspan x="10" y="2650">  │ ├─┬ mime-types@2.1.15 </tspan>
<tspan x="10" y="2666">  │ │ └── mime-db@1.27.0 </tspan>
<tspan x="10" y="2682">  │ ├─┬ on-finished@2.3.0 </tspan>
<tspan x="10" y="2698">  │ │ └── ee-first@1.1.1 </tspan>
<tspan x="10" y="2714">  │ ├── only@0.0.2 </tspan>
<tspan x="10" y="2730">  │ ├── parseurl@1.3.1 </tspan>
<tspan x="10" y="2746">  │ ├── statuses@1.3.1 </tspan>
<tspan x="10" y="2762">  │ ├─┬ type-is@1.6.15 </tspan>
<tspan x="10" y="2778">  │ │ └── media-typer@0.3.0 </tspan>
<tspan x="10" y="2794">  │ └── vary@1.1.1 </tspan>
<tspan x="10" y="2810">  ├─┬ koa-bodyparser@2.5.0 </tspan>
<tspan x="10" y="2826">  │ ├─┬ co-body@5.1.1 </tspan>
<tspan x="10" y="2842">  │ │ ├── inflation@2.0.0 </tspan>
<tspan x="10" y="2858">  │ │ ├── qs@6.4.0 </tspan>
<tspan x="10" y="2874">  │ │ └─┬ raw-body@2.2.0 </tspan>
<tspan x="10" y="2890">  │ │   ├── bytes@2.4.0 </tspan>
<tspan x="10" y="2906">  │ │   ├── iconv-lite@0.4.15 </tspan>
<tspan x="10" y="2922">  │ │   └── unpipe@1.0.0 </tspan>
<tspan x="10" y="2938">  │ └── copy-to@2.0.1 </tspan>
<tspan x="10" y="2954">  ├─┬ koa-router@5.2.3 </tspan>
<tspan x="10" y="2970">  │ ├── methods@1.1.2 </tspan>
<tspan x="10" y="2986">  │ └─┬ path-to-regexp@1.7.0 </tspan>
<tspan x="10" y="3002">  │   └── isarray@0.0.1 </tspan>
<tspan x="10" y="3018">  ├─┬ koa-serve@0.1.7 </tspan>
<tspan x="10" y="3034">  │ ├─┬ koa-send@1.3.1 </tspan>
<tspan x="10" y="3050">  │ │ └─┬ mz@1.3.0 </tspan>
<tspan x="10" y="3066">  │ │   ├── native-or-bluebird@1.2.0 </tspan>
<tspan x="10" y="3082">  │ │   └── thenify-all@1.6.0 </tspan>
<tspan x="10" y="3098">  │ └── lodash@3.10.1 </tspan>
<tspan x="10" y="3114">  ├─┬ koa-serve-static@0.0.1 </tspan>
<tspan x="10" y="3130">  │ ├─┬ serve-static@1.12.1 </tspan>
<tspan x="10" y="3146">  │ │ ├── encodeurl@1.0.1 </tspan>
<tspan x="10" y="3162">  │ │ └─┬ send@0.15.1 </tspan>
<tspan x="10" y="3178">  │ │   ├── debug@2.6.1 </tspan>
<tspan x="10" y="3194">  │ │   ├── etag@1.8.0 </tspan>
<tspan x="10" y="3210">  │ │   ├── fresh@0.5.0 </tspan>
<tspan x="10" y="3226">  │ │   ├── mime@1.3.4 </tspan>
<tspan x="10" y="3242">  │ │   ├── ms@0.7.2 </tspan>
<tspan x="10" y="3258">  │ │   └── range-parser@1.2.0 </tspan>
<tspan x="10" y="3274">  │ └── thenify@3.2.1 </tspan>
<tspan x="10" y="3290">  ├─┬ koa-websocket@2.1.0 </tspan>
<tspan x="10" y="3306">  │ └─┬ ws@1.1.4 </tspan>
<tspan x="10" y="3322">  │   ├── options@0.0.6 </tspan>
<tspan x="10" y="3338">  │   └── ultron@1.0.2 </tspan>
<tspan x="10" y="3354">  ├─┬ mkdirp@0.5.1 </tspan>
<tspan x="10" y="3370">  │ └── minimist@0.0.8 </tspan>
<tspan x="10" y="3386">  ├── node-watch@0.3.5 </tspan>
<tspan x="10" y="3402">  ├── opn@4.0.2 </tspan>
<tspan x="10" y="3418">  ├─┬ parse-hosts@1.0.1 </tspan>
<tspan x="10" y="3434">  │ └── lodash@2.4.2 </tspan>
<tspan x="10" y="3450">  ├── source-map@0.5.6 </tspan>
<tspan x="10" y="3466">  ├─┬ webpack@1.15.0 </tspan>
<tspan x="10" y="3482">  │ ├── acorn@3.3.0 </tspan>
<tspan x="10" y="3498">  │ ├── async@1.5.2 </tspan>
<tspan x="10" y="3514">  │ ├── clone@1.0.2 </tspan>
<tspan x="10" y="3530">  │ ├─┬ enhanced-resolve@0.9.1 </tspan>
<tspan x="10" y="3546">  │ │ ├── graceful-fs@4.1.11 </tspan>
<tspan x="10" y="3562">  │ │ └── memory-fs@0.2.0 </tspan>
<tspan x="10" y="3578">  │ ├── interpret@0.6.6 </tspan>
<tspan x="10" y="3594">  │ ├─┬ memory-fs@0.3.0 </tspan>
<tspan x="10" y="3610">  │ │ ├─┬ errno@0.1.4 </tspan>
<tspan x="10" y="3626">  │ │ │ └── prr@0.0.0 </tspan>
<tspan x="10" y="3642">  │ │ └─┬ readable-stream@2.2.9 </tspan>
<tspan x="10" y="3658">  │ │   ├── buffer-shims@1.0.0 </tspan>
<tspan x="10" y="3674">  │ │   ├── core-util-is@1.0.2 </tspan>
<tspan x="10" y="3690">  │ │   ├── isarray@1.0.0 </tspan>
<tspan x="10" y="3706">  │ │   ├── process-nextick-args@1.0.7 </tspan>
<tspan x="10" y="3722">  │ │   ├── string_decoder@1.0.0 </tspan>
<tspan x="10" y="3738">  │ │   └── util-deprecate@1.0.2 </tspan>
<tspan x="10" y="3754">  │ ├─┬ node-libs-browser@0.7.0 </tspan>
<tspan x="10" y="3770">  │ │ ├── assert@1.4.1 </tspan>
<tspan x="10" y="3786">  │ │ ├─┬ browserify-zlib@0.1.4 </tspan>
<tspan x="10" y="3802">  │ │ │ └── pako@0.2.9 </tspan>
<tspan x="10" y="3818">  │ │ ├─┬ buffer@4.9.1 </tspan>
<tspan x="10" y="3834">  │ │ │ ├── base64-js@1.2.0 </tspan>
<tspan x="10" y="3850">  │ │ │ ├── ieee754@1.1.8 </tspan>
<tspan x="10" y="3866">  │ │ │ └── isarray@1.0.0 </tspan>
<tspan x="10" y="3882">  │ │ ├─┬ console-browserify@1.1.0 </tspan>
<tspan x="10" y="3898">  │ │ │ └── date-now@0.1.4 </tspan>
<tspan x="10" y="3914">  │ │ ├── constants-browserify@1.0.0 </tspan>
<tspan x="10" y="3930">  │ │ ├─┬ crypto-browserify@3.3.0 </tspan>
<tspan x="10" y="3946">  │ │ │ ├── browserify-aes@0.4.0 </tspan>
<tspan x="10" y="3962">  │ │ │ ├── pbkdf2-compat@2.0.1 </tspan>
<tspan x="10" y="3978">  │ │ │ ├── ripemd160@0.2.0 </tspan>
<tspan x="10" y="3994">  │ │ │ └── sha.js@2.2.6 </tspan>
<tspan x="10" y="4010">  │ │ ├── domain-browser@1.1.7 </tspan>
<tspan x="10" y="4026">  │ │ ├── events@1.1.1 </tspan>
<tspan x="10" y="4042">  │ │ ├── https-browserify@0.0.1 </tspan>
<tspan x="10" y="4058">  │ │ ├── os-browserify@0.2.1 </tspan>
<tspan x="10" y="4074">  │ │ ├── path-browserify@0.0.0 </tspan>
<tspan x="10" y="4090">  │ │ ├── process@0.11.9 </tspan>
<tspan x="10" y="4106">  │ │ ├── punycode@1.4.1 </tspan>
<tspan x="10" y="4122">  │ │ ├── querystring-es3@0.2.1 </tspan>
<tspan x="10" y="4138">  │ │ ├── stream-browserify@2.0.1 </tspan>
<tspan x="10" y="4154">  │ │ ├─┬ stream-http@2.7.0 </tspan>
<tspan x="10" y="4170">  │ │ │ ├── builtin-status-codes@3.0.0 </tspan>
<tspan x="10" y="4186">  │ │ │ ├── to-arraybuffer@1.0.1 </tspan>
<tspan x="10" y="4202">  │ │ │ └── xtend@4.0.1 </tspan>
<tspan x="10" y="4218">  │ │ ├── string_decoder@0.10.31 </tspan>
<tspan x="10" y="4234">  │ │ ├─┬ timers-browserify@2.0.2 </tspan>
<tspan x="10" y="4250">  │ │ │ └── setimmediate@1.0.5 </tspan>
<tspan x="10" y="4266">  │ │ ├── tty-browserify@0.0.0 </tspan>
<tspan x="10" y="4282">  │ │ ├─┬ url@0.11.0 </tspan>
<tspan x="10" y="4298">  │ │ │ ├── punycode@1.3.2 </tspan>
<tspan x="10" y="4314">  │ │ │ └── querystring@0.2.0 </tspan>
<tspan x="10" y="4330">  │ │ ├─┬ util@0.10.3 </tspan>
<tspan x="10" y="4346">  │ │ │ └── inherits@2.0.1 </tspan>
<tspan x="10" y="4362">  │ │ └─┬ vm-browserify@0.0.4 </tspan>
<tspan x="10" y="4378">  │ │   └── indexof@0.0.1 </tspan>
<tspan x="10" y="4394">  │ ├─┬ optimist@0.6.1 </tspan>
<tspan x="10" y="4410">  │ │ └── wordwrap@0.0.3 </tspan>
<tspan x="10" y="4426">  │ ├─┬ supports-color@3.2.3 </tspan>
<tspan x="10" y="4442">  │ │ └── has-flag@1.0.0 </tspan>
<tspan x="10" y="4458">  │ ├── tapable@0.1.10 </tspan>
<tspan x="10" y="4474">  │ ├─┬ uglify-js@2.7.5 </tspan>
<tspan x="10" y="4490">  │ │ ├── async@0.2.10 </tspan>
<tspan x="10" y="4506">  │ │ ├── uglify-to-browserify@1.0.2 </tspan>
<tspan x="10" y="4522">  │ │ └─┬ yargs@3.10.0 </tspan>
<tspan x="10" y="4538">  │ │   ├── camelcase@1.2.1 </tspan>
<tspan x="10" y="4554">  │ │   ├─┬ cliui@2.1.0 </tspan>
<tspan x="10" y="4570">  │ │   │ ├─┬ center-align@0.1.3 </tspan>
<tspan x="10" y="4586">  │ │   │ │ ├─┬ align-text@0.1.4 </tspan>
<tspan x="10" y="4602">  │ │   │ │ │ ├── longest@1.0.1 </tspan>
<tspan x="10" y="4618">  │ │   │ │ │ └── repeat-string@1.6.1 </tspan>
<tspan x="10" y="4634">  │ │   │ │ └── lazy-cache@1.0.4 </tspan>
<tspan x="10" y="4650">  │ │   │ ├── right-align@0.1.3 </tspan>
<tspan x="10" y="4666">  │ │   │ └── wordwrap@0.0.2 </tspan>
<tspan x="10" y="4682">  │ │   ├── decamelize@1.2.0 </tspan>
<tspan x="10" y="4698">  │ │   └── window-size@0.1.0 </tspan>
<tspan x="10" y="4714">  │ ├─┬ watchpack@0.2.9 </tspan>
<tspan x="10" y="4730">  │ │ ├── async@0.9.2 </tspan>
<tspan x="10" y="4746">  │ │ └─┬ chokidar@1.6.1 </tspan>
<tspan x="10" y="4762">  │ │   ├─┬ anymatch@1.3.0 </tspan>
<tspan x="10" y="4778">  │ │   │ └─┬ micromatch@2.3.11 </tspan>
<tspan x="10" y="4794">  │ │   │   ├─┬ arr-diff@2.0.0 </tspan>
<tspan x="10" y="4810">  │ │   │   │ └── arr-flatten@1.0.3 </tspan>
<tspan x="10" y="4826">  │ │   │   ├── array-unique@0.2.1 </tspan>
<tspan x="10" y="4842">  │ │   │   ├─┬ braces@1.8.5 </tspan>
<tspan x="10" y="4858">  │ │   │   │ ├─┬ expand-range@1.8.2 </tspan>
<tspan x="10" y="4874">  │ │   │   │ │ └─┬ fill-range@2.2.3 </tspan>
<tspan x="10" y="4890">  │ │   │   │ │   ├── is-number@2.1.0 </tspan>
<tspan x="10" y="4906">  │ │   │   │ │   ├─┬ isobject@2.1.0 </tspan>
<tspan x="10" y="4922">  │ │   │   │ │   │ └── isarray@1.0.0 </tspan>
<tspan x="10" y="4938">  │ │   │   │ │   └── randomatic@1.1.6 </tspan>
<tspan x="10" y="4954">  │ │   │   │ ├── preserve@0.2.0 </tspan>
<tspan x="10" y="4970">  │ │   │   │ └── repeat-element@1.1.2 </tspan>
<tspan x="10" y="4986">  │ │   │   ├─┬ expand-brackets@0.1.5 </tspan>
<tspan x="10" y="5002">  │ │   │   │ └── is-posix-bracket@0.1.1 </tspan>
<tspan x="10" y="5018">  │ │   │   ├── extglob@0.3.2 </tspan>
<tspan x="10" y="5034">  │ │   │   ├── filename-regex@2.0.0 </tspan>
<tspan x="10" y="5050">  │ │   │   ├── kind-of@3.1.0 </tspan>
<tspan x="10" y="5066">  │ │   │   ├─┬ normalize-path@2.1.1 </tspan>
<tspan x="10" y="5082">  │ │   │   │ └── remove-trailing-separator@1.0.1 </tspan>
<tspan x="10" y="5098">  │ │   │   ├─┬ object.omit@2.0.1 </tspan>
<tspan x="10" y="5114">  │ │   │   │ ├─┬ for-own@0.1.5 </tspan>
<tspan x="10" y="5130">  │ │   │   │ │ └── for-in@1.0.2 </tspan>
<tspan x="10" y="5146">  │ │   │   │ └── is-extendable@0.1.1 </tspan>
<tspan x="10" y="5162">  │ │   │   ├─┬ parse-glob@3.0.4 </tspan>
<tspan x="10" y="5178">  │ │   │   │ ├── glob-base@0.3.0 </tspan>
<tspan x="10" y="5194">  │ │   │   │ └── is-dotfile@1.0.2 </tspan>
<tspan x="10" y="5210">  │ │   │   └─┬ regex-cache@0.4.3 </tspan>
<tspan x="10" y="5226">  │ │   │     ├── is-equal-shallow@0.1.3 </tspan>
<tspan x="10" y="5242">  │ │   │     └── is-primitive@2.0.0 </tspan>
<tspan x="10" y="5258">  │ │   ├── async-each@1.0.1 </tspan>
<tspan x="10" y="5274">  │ │   ├── glob-parent@2.0.0 </tspan>
<tspan x="10" y="5290">  │ │   ├─┬ is-binary-path@1.0.1 </tspan>
<tspan x="10" y="5306">  │ │   │ └── binary-extensions@1.8.0 </tspan>
<tspan x="10" y="5322">  │ │   ├─┬ is-glob@2.0.1 </tspan>
<tspan x="10" y="5338">  │ │   │ └── is-extglob@1.0.0 </tspan>
<tspan x="10" y="5354">  │ │   └─┬ readdirp@2.1.0 </tspan>
<tspan x="10" y="5370">  │ │     └── set-immediate-shim@1.0.1 </tspan>
<tspan x="10" y="5386">  │ └─┬ webpack-core@0.6.9 </tspan>
<tspan x="10" y="5402">  │   ├── source-list-map@0.1.8 </tspan>
<tspan x="10" y="5418">  │   └── source-map@0.4.4 </tspan>
<tspan x="10" y="5434">  ├── weex-components@0.2.0 </tspan>
<tspan x="10" y="5450">  ├─┬ weex-loader@0.4.4 </tspan>
<tspan x="10" y="5466">  │ ├── babel-plugin-transform-runtime@6.23.0 </tspan>
<tspan x="10" y="5482">  │ ├── UNMET PEER DEPENDENCY css-loader@*</tspan>
<tspan x="10" y="5498">  │ ├── hash-sum@1.0.2 </tspan>
<tspan x="10" y="5514">  │ ├─┬ md5@2.2.1 </tspan>
<tspan x="10" y="5530">  │ │ ├── charenc@0.0.2 </tspan>
<tspan x="10" y="5546">  │ │ ├── crypt@0.0.2 </tspan>
<tspan x="10" y="5562">  │ │ └── is-buffer@1.1.5 </tspan>
<tspan x="10" y="5578">  │ ├── parse5@2.2.3 </tspan>
<tspan x="10" y="5594">  │ ├─┬ weex-scripter@0.1.5 </tspan>
<tspan x="10" y="5610">  │ │ ├─┬ browserify@13.0.1 </tspan>
<tspan x="10" y="5626">  │ │ │ ├── assert@1.3.0 </tspan>
<tspan x="10" y="5642">  │ │ │ ├─┬ browser-pack@6.0.2 </tspan>
<tspan x="10" y="5658">  │ │ │ │ ├─┬ combine-source-map@0.7.2 </tspan>
<tspan x="10" y="5674">  │ │ │ │ │ ├── convert-source-map@1.1.3 </tspan>
<tspan x="10" y="5690">  │ │ │ │ │ ├── inline-source-map@0.6.2 </tspan>
<tspan x="10" y="5706">  │ │ │ │ │ └── lodash.memoize@3.0.4 </tspan>
<tspan x="10" y="5722">  │ │ │ │ └── umd@3.0.1 </tspan>
<tspan x="10" y="5738">  │ │ │ ├─┬ browser-resolve@1.11.2 </tspan>
<tspan x="10" y="5754">  │ │ │ │ └── resolve@1.1.7 </tspan>
<tspan x="10" y="5770">  │ │ │ ├─┬ concat-stream@1.5.2 </tspan>
<tspan x="10" y="5786">  │ │ │ │ ├─┬ readable-stream@2.0.6 </tspan>
<tspan x="10" y="5802">  │ │ │ │ │ ├── isarray@1.0.0 </tspan>
<tspan x="10" y="5818">  │ │ │ │ │ └── string_decoder@0.10.31 </tspan>
<tspan x="10" y="5834">  │ │ │ │ └── typedarray@0.0.6 </tspan>
<tspan x="10" y="5850">  │ │ │ ├── defined@1.0.0 </tspan>
<tspan x="10" y="5866">  │ │ │ ├── deps-sort@2.0.0 </tspan>
<tspan x="10" y="5882">  │ │ │ ├── duplexer2@0.1.4 </tspan>
<tspan x="10" y="5898">  │ │ │ ├── glob@5.0.15 </tspan>
<tspan x="10" y="5914">  │ │ │ ├─┬ has@1.0.1 </tspan>
<tspan x="10" y="5930">  │ │ │ │ └── function-bind@1.1.0 </tspan>
<tspan x="10" y="5946">  │ │ │ ├── htmlescape@1.1.1 </tspan>
<tspan x="10" y="5962">  │ │ │ ├─┬ insert-module-globals@7.0.1 </tspan>
<tspan x="10" y="5978">  │ │ │ │ └─┬ lexical-scope@1.2.0 </tspan>
<tspan x="10" y="5994">  │ │ │ │   └─┬ astw@2.2.0 </tspan>
<tspan x="10" y="6010">  │ │ │ │     └── acorn@4.0.11 </tspan>
<tspan x="10" y="6026">  │ │ │ ├─┬ JSONStream@1.3.1 </tspan>
<tspan x="10" y="6042">  │ │ │ │ ├── jsonparse@1.3.0 </tspan>
<tspan x="10" y="6058">  │ │ │ │ └── through@2.3.8 </tspan>
<tspan x="10" y="6074">  │ │ │ ├─┬ labeled-stream-splicer@2.0.0 </tspan>
<tspan x="10" y="6090">  │ │ │ │ └── stream-splicer@2.0.0 </tspan>
<tspan x="10" y="6106">  │ │ │ ├─┬ module-deps@4.1.1 </tspan>
<tspan x="10" y="6122">  │ │ │ │ ├── cached-path-relative@1.0.1 </tspan>
<tspan x="10" y="6138">  │ │ │ │ ├─┬ detective@4.5.0 </tspan>
<tspan x="10" y="6154">  │ │ │ │ │ └── acorn@4.0.11 </tspan>
<tspan x="10" y="6170">  │ │ │ │ └── stream-combiner2@1.1.1 </tspan>
<tspan x="10" y="6186">  │ │ │ ├── os-browserify@0.1.2 </tspan>
<tspan x="10" y="6202">  │ │ │ ├─┬ parents@1.0.1 </tspan>
<tspan x="10" y="6218">  │ │ │ │ └── path-platform@0.11.15 </tspan>
<tspan x="10" y="6234">  │ │ │ ├── read-only-stream@2.0.0 </tspan>
<tspan x="10" y="6250">  │ │ │ ├─┬ resolve@1.3.3 </tspan>
<tspan x="10" y="6266">  │ │ │ │ └── path-parse@1.0.5 </tspan>
<tspan x="10" y="6282">  │ │ │ ├─┬ shasum@1.0.2 </tspan>
<tspan x="10" y="6298">  │ │ │ │ ├── json-stable-stringify@0.0.1 </tspan>
<tspan x="10" y="6314">  │ │ │ │ └── sha.js@2.4.8 </tspan>
<tspan x="10" y="6330">  │ │ │ ├─┬ shell-quote@1.6.1 </tspan>
<tspan x="10" y="6346">  │ │ │ │ ├── array-filter@0.0.1 </tspan>
<tspan x="10" y="6362">  │ │ │ │ ├── array-map@0.0.0 </tspan>
<tspan x="10" y="6378">  │ │ │ │ ├── array-reduce@0.0.0 </tspan>
<tspan x="10" y="6394">  │ │ │ │ └── jsonify@0.0.0 </tspan>
<tspan x="10" y="6410">  │ │ │ ├── string_decoder@0.10.31 </tspan>
<tspan x="10" y="6426">  │ │ │ ├─┬ subarg@1.0.0 </tspan>
<tspan x="10" y="6442">  │ │ │ │ └── minimist@1.2.0 </tspan>
<tspan x="10" y="6458">  │ │ │ ├─┬ syntax-error@1.3.0 </tspan>
<tspan x="10" y="6474">  │ │ │ │ └── acorn@4.0.11 </tspan>
<tspan x="10" y="6490">  │ │ │ ├── through2@2.0.3 </tspan>
<tspan x="10" y="6506">  │ │ │ └── timers-browserify@1.4.2 </tspan>
<tspan x="10" y="6522">  │ │ ├─┬ escodegen@1.7.1 </tspan>
<tspan x="10" y="6538">  │ │ │ ├── esprima@1.2.5 </tspan>
<tspan x="10" y="6554">  │ │ │ ├── estraverse@1.9.3 </tspan>
<tspan x="10" y="6570">  │ │ │ ├─┬ optionator@0.5.0 </tspan>
<tspan x="10" y="6586">  │ │ │ │ ├── fast-levenshtein@1.0.7 </tspan>
<tspan x="10" y="6602">  │ │ │ │ ├── levn@0.2.5 </tspan>
<tspan x="10" y="6618">  │ │ │ │ └── wordwrap@0.0.3 </tspan>
<tspan x="10" y="6634">  │ │ │ └── source-map@0.2.0 </tspan>
<tspan x="10" y="6650">  │ │ ├── esprima@2.7.3 </tspan>
<tspan x="10" y="6666">  │ │ ├── md5@2.1.0 </tspan>
<tspan x="10" y="6682">  │ │ └─┬ resolve-bin@0.4.0 </tspan>
<tspan x="10" y="6698">  │ │   └── find-parent-dir@0.3.0 </tspan>
<tspan x="10" y="6714">  │ ├─┬ weex-styler@0.1.10 </tspan>
<tspan x="10" y="6730">  │ │ └─┬ css@2.2.1 </tspan>
<tspan x="10" y="6746">  │ │   ├── source-map@0.1.43 </tspan>
<tspan x="10" y="6762">  │ │   ├─┬ source-map-resolve@0.3.1 </tspan>
<tspan x="10" y="6778">  │ │   │ ├── atob@1.1.3 </tspan>
<tspan x="10" y="6794">  │ │   │ ├── resolve-url@0.2.1 </tspan>
<tspan x="10" y="6810">  │ │   │ └── source-map-url@0.3.0 </tspan>
<tspan x="10" y="6826">  │ │   └── urix@0.1.0 </tspan>
<tspan x="10" y="6842">  │ ├─┬ weex-templater@0.3.5 </tspan>
<tspan x="10" y="6858">  │ │ └── parse5@2.1.5 </tspan>
<tspan x="10" y="6874">  │ ├─┬ weex-transformer@0.4.3 </tspan>
<tspan x="10" y="6890">  │ │ ├── md5@2.1.0 </tspan>
<tspan x="10" y="6906">  │ │ └── parse5@2.1.5 </tspan>
<tspan x="10" y="6922">  │ └─┬ weex-vue-loader@0.2.12 </tspan>
<tspan x="10" y="6938">  │   ├─┬ consolidate@0.14.5 </tspan>
<tspan x="10" y="6954">  │   │ └── bluebird@3.5.0 </tspan>
<tspan x="10" y="6970">  │   ├── he@1.1.1 </tspan>
<tspan x="10" y="6986">  │   ├─┬ js-beautify@1.6.12 </tspan>
<tspan x="10" y="7002">  │   │ ├─┬ config-chain@1.1.11 </tspan>
<tspan x="10" y="7018">  │   │ │ ├── ini@1.3.4 </tspan>
<tspan x="10" y="7034">  │   │ │ └── proto-list@1.2.4 </tspan>
<tspan x="10" y="7050">  │   │ ├─┬ editorconfig@0.13.2 </tspan>
<tspan x="10" y="7066">  │   │ │ ├── lru-cache@3.2.0 </tspan>
<tspan x="10" y="7082">  │   │ │ └── sigmund@1.0.1 </tspan>
<tspan x="10" y="7098">  │   │ └─┬ nopt@3.0.6 </tspan>
<tspan x="10" y="7114">  │   │   └── abbrev@1.1.0 </tspan>
<tspan x="10" y="7130">  │   ├─┬ lru-cache@4.0.2 </tspan>
<tspan x="10" y="7146">  │   │ ├── pseudomap@1.0.2 </tspan>
<tspan x="10" y="7162">  │   │ └── yallist@2.1.2 </tspan>
<tspan x="10" y="7178">  │   ├─┬ postcss@5.2.17 </tspan>
<tspan x="10" y="7194">  │   │ ├── js-base64@2.1.9 </tspan>
<tspan x="10" y="7210">  │   │ └── supports-color@3.2.3 </tspan>
<tspan x="10" y="7226">  │   ├─┬ postcss-selector-parser@2.2.3 </tspan>
<tspan x="10" y="7242">  │   │ ├── flatten@1.0.2 </tspan>
<tspan x="10" y="7258">  │   │ ├── indexes-of@1.0.1 </tspan>
<tspan x="10" y="7274">  │   │ └── uniq@1.0.1 </tspan>
<tspan x="10" y="7290">  │   ├── vue-hot-reload-api@2.1.0 </tspan>
<tspan x="10" y="7306">  │   ├── vue-style-loader@1.0.0 </tspan>
<tspan x="10" y="7322">  │   ├─┬ vue-template-compiler@2.2.6 </tspan>
<tspan x="10" y="7338">  │   │ └── de-indent@1.0.2 </tspan>
<tspan x="10" y="7354">  │   ├── vue-template-es2015-compiler@1.5.2 </tspan>
<tspan x="10" y="7370">  │   └── weex-template-compiler@2.1.10-weex.2 </tspan>
<tspan x="10" y="7386">  └─┬ weex-transformer@0.3.1 </tspan>
<tspan x="10" y="7402">    ├─┬ chalk@1.1.3 </tspan>
<tspan x="10" y="7418">    │ ├── ansi-styles@2.2.1 </tspan>
<tspan x="10" y="7434">    │ ├── escape-string-regexp@1.0.5 </tspan>
<tspan x="10" y="7450">    │ ├─┬ has-ansi@2.0.0 </tspan>
<tspan x="10" y="7466">    │ │ └── ansi-regex@2.1.1 </tspan>
<tspan x="10" y="7482">    │ ├── strip-ansi@3.0.1 </tspan>
<tspan x="10" y="7498">    │ └── supports-color@2.0.0 </tspan>
<tspan x="10" y="7514">    ├─┬ fs-extra@0.26.7 </tspan>
<tspan x="10" y="7530">    │ ├── jsonfile@2.4.0 </tspan>
<tspan x="10" y="7546">    │ └── klaw@1.3.1 </tspan>
<tspan x="10" y="7562">    ├── md5@2.1.0 </tspan>
<tspan x="10" y="7578">    ├── parse5@2.1.5 </tspan>
<tspan x="10" y="7594">    ├── printf@0.2.5 </tspan>
<tspan x="10" y="7610">    ├── weex-styler@0.0.17 </tspan>
<tspan x="10" y="7626">    └── weex-templater@0.2.3</tspan>
</text>
</svg>
